<?xml version="1.0" standalone="no"?>
<!DOCTYPE svg PUBLIC "-//W3C//DTD SVG 20010904//EN"
 "http://www.w3.org/TR/2001/REC-SVG-20010904/DTD/svg10.dtd">
<svg version="1.0" xmlns="http://www.w3.org/2000/svg"
 width="1366.000000pt" height="1366.000000pt" viewBox="0 0 1366.000000 1366.000000"
 preserveAspectRatio="xMidYMid meet">
<metadata>
Created by potrace 1.14, written by Peter Selinger 2001-2017
</metadata>
<g transform="translate(0.000000,1366.000000) scale(0.100000,-0.100000)"
fill="#000000" stroke="none">
<path d="M1537 9124 c-1 -1 -24 -4 -52 -7 -192 -20 -378 -154 -473 -343 -69
-136 -65 -66 -66 -1324 l0 -1135 23 -75 c31 -102 80 -186 148 -258 90 -93 170
-143 288 -179 70 -21 509 -23 5417 -20 l5293 2 60 23 c33 12 64 27 69 32 6 6
16 10 24 10 23 0 112 68 173 132 87 90 149 221 165 344 8 70 9 2188 0 2257
-31 245 -237 469 -486 528 -45 11 -1020 13 -5318 14 -2895 0 -5264 -1 -5265
-1z"/>
<path d="M3145 5454 c-85 -29 -127 -85 -129 -167 -1 -107 48 -159 210 -222
111 -45 144 -77 144 -141 0 -76 -54 -116 -160 -119 -37 -1 -93 6 -132 17 -37
10 -69 18 -71 18 -6 0 -1 -65 6 -76 12 -19 134 -37 212 -31 153 11 236 87 231
207 -5 94 -56 145 -200 199 -107 41 -156 82 -156 134 0 83 46 120 149 119 36
0 86 -8 110 -16 50 -18 55 -16 69 24 13 35 12 36 -65 53 -76 18 -168 19 -218
1z"/>
<path d="M5790 5457 c-19 -5 -37 -12 -40 -16 -3 -3 -17 -14 -31 -23 -59 -37
-79 -150 -40 -227 24 -46 83 -85 197 -130 45 -18 94 -45 109 -61 51 -54 31
-144 -40 -179 -51 -25 -194 -18 -276 14 -22 8 -32 -51 -13 -70 33 -32 208 -45
287 -21 124 37 179 128 148 243 -13 46 -85 117 -131 128 -24 6 -51 17 -138 58
-54 25 -81 66 -78 119 4 46 35 84 80 94 46 11 131 5 183 -12 25 -9 47 -13 49
-11 3 2 9 18 14 36 11 38 1 44 -88 61 -69 12 -139 11 -192 -3z"/>
<path d="M6480 5460 c-102 -30 -158 -104 -147 -194 13 -105 45 -133 253 -220
71 -30 95 -56 100 -106 9 -87 -42 -131 -156 -134 -60 -2 -94 3 -186 29 -18 6
-21 2 -22 -34 -2 -38 0 -41 36 -51 20 -6 71 -14 112 -17 188 -14 299 59 303
197 2 97 -48 149 -203 211 -46 18 -97 45 -112 59 -79 71 -38 180 72 192 34 4
150 -13 182 -27 13 -5 20 0 28 20 16 42 12 53 -22 61 -18 4 -40 9 -48 11 -31
8 -166 10 -190 3z"/>
<path d="M9676 5455 c-91 -33 -131 -88 -129 -178 2 -100 54 -155 198 -208 73
-27 131 -62 145 -88 5 -11 10 -39 10 -62 0 -35 -6 -47 -36 -75 -20 -20 -47
-35 -62 -35 -15 -1 -45 -2 -68 -3 -36 -2 -109 10 -174 28 -24 7 -25 5 -25 -28
0 -19 5 -39 10 -44 37 -34 231 -41 310 -11 87 32 135 102 131 189 -5 94 -49
137 -202 199 -120 49 -154 81 -154 144 1 46 11 64 53 92 35 23 132 23 208 1
29 -9 53 -15 54 -13 1 1 7 16 13 34 10 29 8 32 -16 42 -83 32 -204 39 -266 16z"/>
<path d="M10833 5451 c-145 -49 -217 -180 -208 -375 10 -234 143 -361 360
-343 194 15 302 159 297 393 -4 153 -84 283 -201 322 -73 25 -180 26 -248 3z
m233 -81 c81 -35 124 -125 126 -260 3 -196 -73 -298 -226 -304 -167 -7 -254
94 -254 294 0 139 41 225 128 271 59 31 155 30 226 -1z"/>
<path d="M1420 5351 c-1 -61 -1 -167 -1 -236 0 -69 0 -181 1 -250 l0 -126 158
1 c207 2 264 21 313 105 18 29 23 54 23 102 0 55 -4 67 -30 100 -20 24 -47 43
-80 54 -47 17 -48 18 -21 24 15 4 27 11 27 16 0 5 5 9 11 9 15 0 49 38 60 68
14 37 10 108 -8 147 -12 26 -31 43 -71 62 -51 25 -66 27 -218 31 l-164 4 0
-111z m320 17 c47 -20 62 -40 63 -85 2 -104 -38 -130 -197 -131 l-103 -1 -1
118 -1 118 102 -2 c65 -1 115 -7 137 -17z m28 -312 c59 -31 78 -120 38 -181
-32 -49 -60 -59 -186 -63 l-117 -4 0 137 -1 137 116 -4 c87 -3 125 -8 150 -22z"/>
<path d="M2187 5193 c1 -250 3 -271 23 -318 25 -59 56 -89 125 -121 42 -20 63
-23 135 -20 141 5 222 62 258 181 5 17 8 145 8 285 l-1 255 -41 3 -41 3 0
-248 c0 -136 -3 -264 -6 -283 -10 -50 -66 -105 -122 -119 -90 -22 -193 10
-231 72 -17 29 -19 57 -22 305 l-3 272 -42 0 -42 0 2 -267z"/>
<path d="M3729 5458 c0 -2 -2 -164 -2 -361 l-2 -357 43 0 42 0 0 360 0 360
-40 0 c-22 0 -40 -1 -41 -2z"/>
<path d="M4130 5100 l0 -360 39 0 38 0 -1 300 -2 300 119 -183 c65 -100 153
-235 195 -299 l77 -118 48 0 47 0 0 360 0 360 -40 0 -40 0 2 -299 c3 -293 3
-298 -15 -272 -10 14 -92 139 -182 276 -213 326 -188 295 -240 295 l-45 0 0
-360z"/>
<path d="M5017 5453 c-4 -3 -7 -165 -7 -360 l0 -353 199 0 c181 0 199 2 203
18 3 9 2 26 -2 37 -6 18 -17 20 -156 21 -82 1 -151 2 -154 3 -3 0 -5 60 -5
131 l0 130 147 0 c82 0 148 3 149 8 0 4 2 19 3 35 2 31 12 29 -184 29 l-115 0
0 116 0 117 157 0 156 -1 4 27 c7 49 8 49 -196 49 -106 0 -196 -3 -199 -7z"/>
<path d="M7412 5238 c44 -123 101 -284 128 -358 l47 -135 38 -3 c21 -2 41 0
46 5 7 7 50 126 230 628 16 44 29 81 29 82 0 2 -20 2 -45 1 l-44 -1 -20 -56
c-10 -31 -40 -114 -66 -186 -57 -157 -112 -323 -117 -349 -1 -11 -28 54 -59
145 -31 90 -79 227 -106 304 l-50 140 -45 3 -46 3 80 -223z"/>
<path d="M8150 5100 l0 -360 201 0 200 0 -3 37 -3 38 -152 0 c-84 0 -154 3
-154 7 -1 5 -2 63 -3 131 l-1 122 149 5 149 5 1 33 c1 37 14 34 -159 34 -60 0
-117 2 -125 4 -12 3 -15 25 -15 116 l0 113 158 0 157 -1 0 38 0 38 -200 0
-200 0 0 -360z"/>
<path d="M8835 5100 l0 -360 43 0 42 0 0 150 0 151 76 -3 77 -3 85 -147 85
-148 49 0 c47 0 48 1 37 23 -10 19 -47 79 -86 143 -31 48 -93 156 -93 160 0 2
5 4 12 4 26 0 88 55 108 94 24 50 27 131 6 179 -36 85 -112 114 -311 116
l-130 2 0 -361z m277 276 c79 -17 115 -106 79 -194 -20 -48 -64 -66 -173 -70
l-98 -4 0 134 c0 74 2 137 5 140 8 7 143 3 187 -6z"/>
<path d="M10259 5458 c0 -2 -1 -163 -2 -358 l-1 -355 42 -3 42 -3 0 360 0 361
-40 0 c-22 0 -40 -1 -41 -2z"/>
<path d="M11568 5448 c-2 -7 -3 -168 -3 -358 l1 -345 39 0 39 0 1 224 c0 123
-2 255 -5 293 -6 75 0 92 18 52 7 -13 17 -30 23 -37 5 -7 31 -43 56 -82 25
-38 101 -157 170 -262 l125 -193 49 0 50 0 -1 360 -2 360 -39 0 -40 0 3 -301
c2 -252 1 -298 -10 -282 -8 10 -59 88 -115 173 -55 85 -138 212 -184 283 l-84
127 -43 0 c-26 0 -45 -5 -48 -12z"/>
</g>
</svg>
